<svg class="img-fluid" id="outputsvg" xmlns="http://www.w3.org/2000/svg" style="transform: none; transform-origin: 50% 50%; cursor: move; max-height: none;" width="130" height="36" viewBox="0 0 1300 360"><g id="l5NletMqYuXFUSDMRSluliH" fill="rgb(9,9,9)" style="transform: none;"><g style="transform: none;"><path id="pQHMDollh" d="M248 345 c-2 -3 -24 -6 -47 -7 -57 -2 -103 -34 -116 -80 -5 -20 -13 -40 -17 -44 -20 -19 -7 -84 25 -126 39 -51 103 -90 116 -70 5 8 25 12 55 11 59 -3 95 22 118 82 23 59 22 97 -2 147 -24 50 -111 108 -132 87z m2 -105 c12 -8 11 -10 -7 -10 -19 0 -23 -7 -29 -50 -6 -49 -7 -50 -25 -34 -26 23 -24 50 6 79 27 28 33 29 55 15z"></path></g></g><g id="l5UGd7XjWobfimk2QeztwqX" fill="rgb(27,26,25)" style="transform: none;"><g style="transform: none;"><path id="p68diEoRl" d="M205 339 c-62 -9 -110 -35 -110 -60 0 -18 34 -24 49 -9 8 8 6 15 -9 27 -19 15 -19 15 5 9 14 -4 32 -7 40 -7 8 1 36 2 61 2 43 1 45 3 41 25 -2 13 -7 23 -11 23 -3 -1 -33 -5 -66 -10z"></path><path id="p11kK0imTM" d="M298 312 c3 -15 11 -31 19 -35 8 -5 22 -26 31 -47 15 -35 19 -37 35 -26 22 17 13 42 -19 50 -18 5 -24 13 -24 35 0 19 -7 31 -23 38 -22 10 -24 9 -19 -15z"></path><path id="p42zSXprv" d="M169 259 c-17 -14 -20 -22 -11 -25 7 -4 12 -24 12 -50 0 -37 3 -44 19 -44 11 0 23 -4 26 -10 3 -6 19 -10 36 -10 21 0 29 -5 29 -17 0 -14 5 -12 27 10 62 62 15 167 -76 167 -25 0 -47 -7 -62 -21z m108 -4 c8 -9 12 -19 8 -23 -4 -4 -10 -1 -12 6 -3 6 -13 12 -24 12 -10 0 -19 5 -19 10 0 15 30 12 47 -5z"></path><path id="phQVNLLtq" d="M378 186 c-9 -7 -20 -24 -23 -38 -4 -14 -16 -36 -27 -48 -17 -18 -18 -24 -7 -31 22 -14 44 -6 47 19 2 12 7 22 12 22 10 0 24 63 19 79 -3 6 -11 5 -21 -3z"></path><path id="pX1Z5de4k" d="M280 56 c0 -17 25 -27 46 -19 14 5 12 8 -7 19 -31 17 -39 17 -39 0z"></path><path id="pFcqCq0am" d="M180 30 c0 -13 7 -20 20 -20 13 0 20 7 20 20 0 13 -7 20 -20 20 -13 0 -20 -7 -20 -20z"></path></g></g><g id="l6OUX6WJFKgMkx1z9ZiYmxc" fill="rgb(42,42,42)" style="transform: none;"><g style="transform: none;"><path id="pk6x5GXan" d="M170 320 c0 -21 10 -24 48 -14 36 10 27 34 -13 34 -28 0 -35 -4 -35 -20z"></path><path id="pgDMI2Wgn" d="M127 283 c-4 -3 -7 -13 -7 -21 0 -12 3 -12 15 -2 8 7 15 16 15 21 0 11 -14 12 -23 2z"></path><path id="pFBFZFXgv" d="M181 266 c-64 -35 -69 -156 -6 -140 16 4 30 0 40 -9 22 -23 18 -30 -12 -23 -21 5 -24 4 -13 -4 25 -17 76 -11 104 11 21 17 25 24 14 30 -10 7 -9 9 3 9 19 0 30 30 22 60 -5 20 -33 29 -33 10 0 -5 -6 -10 -14 -10 -8 0 -17 -11 -20 -25 -7 -28 -21 -33 -30 -9 -4 9 -13 14 -21 10 -20 -7 -19 18 2 35 13 11 17 11 20 2 8 -23 20 -13 15 12 -3 18 -11 25 -28 25 -30 0 -31 17 -1 23 19 4 19 4 2 5 -11 1 -31 -5 -44 -12z"></path><path id="p1DRHCYTmT" d="M100 220 c0 -13 -7 -20 -20 -20 -13 0 -20 -7 -20 -20 0 -25 12 -26 32 -2 18 21 30 62 17 62 -5 0 -9 -9 -9 -20z"></path><path id="p790cEky6" d="M360 215 c0 -17 2 -18 24 -9 23 9 20 24 -4 24 -11 0 -20 -7 -20 -15z"></path><path id="p1DRxlxgRH" d="M376 181 c-10 -11 -16 -26 -13 -33 4 -10 6 -10 6 0 1 6 8 12 16 12 8 0 15 9 15 20 0 25 -3 25 -24 1z"></path><path id="pefe1bSNI" d="M74 145 c-16 -12 -17 -14 -2 -15 9 0 23 -3 31 -6 12 -4 14 0 10 15 -6 25 -13 26 -39 6z"></path><path id="pDbzcaS1S" d="M130 72 c0 -21 7 -35 20 -42 17 -9 20 -8 20 13 0 13 -9 32 -20 42 -20 18 -20 17 -20 -13z"></path><path id="pSBxw1ufF" d="M233 63 c-44 -3 -53 -7 -53 -23 0 -10 4 -21 9 -24 16 -10 131 16 131 29 0 11 -27 30 -33 23 -1 -1 -26 -3 -54 -5z"></path></g></g><g id="l5FlQedKbrBXocvX62Xa4A6" fill="rgb(64,64,65)" style="transform: none;"><g style="transform: none;"><path id="pIDVVafky" d="M230 325 c0 -8 4 -15 9 -15 5 0 16 -3 25 -6 12 -4 16 0 16 15 0 16 -6 21 -25 21 -16 0 -25 -6 -25 -15z"></path><path id="p6MYL87gD" d="M100 265 c0 -23 -5 -35 -14 -35 -11 0 -30 -58 -22 -67 7 -8 46 31 46 46 0 10 10 31 21 46 18 22 20 29 8 36 -27 17 -39 10 -39 -26z"></path><path id="pStl7g2Yt" d="M168 251 c-27 -24 -33 -36 -33 -71 0 -35 6 -47 33 -71 36 -32 69 -36 112 -14 59 31 69 107 21 156 -40 40 -89 40 -133 0z m72 -41 c0 -5 7 -10 15 -10 8 0 15 -8 15 -19 0 -10 -7 -24 -15 -31 -12 -10 -15 -9 -15 5 0 13 -6 16 -25 13 -27 -6 -31 3 -15 33 11 20 40 27 40 9z"></path><path id="pljmYq1UR" d="M343 240 c24 -43 25 -44 45 -31 22 14 -12 71 -42 71 l-24 0 21 -40z"></path><path id="ppx9TaAzh" d="M78 149 c-21 -12 -12 -39 13 -39 14 0 19 7 19 25 0 27 -6 30 -32 14z"></path><path id="pZjfOuNAL" d="M341 114 c-26 -44 -26 -44 7 -35 21 6 28 14 30 39 4 42 -11 41 -37 -4z"></path><path id="p1202q69oM" d="M130 65 c0 -14 8 -29 20 -35 16 -9 20 -8 20 5 0 22 -18 55 -30 55 -6 0 -10 -11 -10 -25z"></path><path id="pYt80jvKv" d="M265 59 c-16 -5 -42 -6 -57 -3 -20 4 -28 2 -28 -8 1 -32 15 -38 75 -28 32 5 63 14 68 19 15 15 -25 29 -58 20z"></path></g></g><g id="l1RskfaKLxOSqtvVCee4Vjd" fill="rgb(89,89,89)" style="transform: none;"><g style="transform: none;"><path id="pZfZQVAA8" d="M145 326 c-18 -13 -18 -14 3 -20 31 -10 82 3 82 20 0 18 -60 19 -85 0z"></path><path id="p1GEErUiUZ" d="M120 285 c0 -8 -9 -15 -20 -15 -16 0 -20 -7 -20 -30 0 -16 -4 -30 -10 -30 -5 0 -10 -11 -10 -25 0 -40 27 -19 58 46 21 44 25 60 15 63 -7 3 -13 -1 -13 -9z"></path><path id="pC8KuTz6E" d="M169 252 c-28 -25 -34 -37 -34 -70 0 -76 77 -122 143 -88 87 45 63 170 -34 183 -36 5 -46 1 -75 -25z m113 -19 c27 -24 24 -87 -4 -107 -32 -23 -65 -20 -93 9 -30 30 -31 54 -4 89 24 31 72 35 101 9z"></path><path id="pGDGZp9Lb" d="M246 222 c-3 -6 -1 -14 5 -17 15 -10 25 3 12 16 -7 7 -13 7 -17 1z"></path><path id="p1AaRJrgEx" d="M200 150 c0 -15 5 -20 18 -18 9 2 17 10 17 18 0 8 -8 16 -17 18 -13 2 -18 -3 -18 -18z"></path><path id="pi5oWQep5" d="M351 230 c13 -35 34 -35 34 1 0 17 -6 25 -22 27 -21 3 -22 1 -12 -28z"></path><path id="piObKUcL3" d="M372 178 c-5 -7 -13 -24 -17 -38 -4 -14 -15 -33 -23 -43 -14 -16 -14 -19 -2 -27 23 -15 28 -12 44 18 31 61 30 129 -2 90z"></path><path id="pG00xP7Tx" d="M82 147 c-12 -14 -5 -57 8 -57 4 0 10 -8 12 -17 3 -10 20 -27 38 -37 l33 -19 -7 28 c-4 16 -18 42 -32 58 -13 16 -24 35 -24 43 0 18 -14 18 -28 1z"></path><path id="p14Nw5a2t0" d="M186 38 c9 -30 9 -31 33 -23 28 8 27 31 -1 39 -36 9 -40 7 -32 -16z"></path><path id="pVfq9L3lU" d="M280 40 c0 -23 1 -24 35 -8 18 8 22 14 13 20 -24 15 -48 9 -48 -12z"></path></g></g><g id="l6MtvS4GTgV9XuVVgJ3bjob" fill="rgb(114,114,114)" style="transform: none;"><g style="transform: none;"><path id="p58nvnft7" d="M145 328 c-19 -11 -19 -11 0 -19 26 -10 54 -11 39 -1 -6 4 -13 12 -15 19 -3 9 -9 9 -24 1z"></path><path id="p12NJ962Ss" d="M240 326 c0 -7 9 -16 20 -19 15 -4 20 0 20 14 0 12 -7 19 -20 19 -11 0 -20 -6 -20 -14z"></path><path id="pzLLNBTIn" d="M300 316 c0 -10 14 -34 31 -53 l30 -35 -3 38 c-2 30 -8 40 -23 43 -11 2 -23 8 -27 15 -5 7 -8 4 -8 -8z"></path><path id="pLFH2aQ1N" d="M97 293 c-4 -3 -7 -17 -7 -30 0 -12 -4 -23 -9 -23 -5 0 -11 -17 -13 -39 -3 -35 -2 -37 15 -27 10 6 20 22 24 36 3 14 14 37 24 51 17 24 17 28 3 33 -20 8 -29 8 -37 -1z"></path><path id="pAAj7T9R9" d="M177 260 c-38 -30 -52 -81 -32 -120 20 -38 73 -65 110 -56 40 10 75 53 75 93 0 45 -14 69 -50 88 -40 20 -72 19 -103 -5z m122 -46 c16 -35 14 -47 -10 -78 -40 -51 -129 -23 -129 42 0 36 24 70 53 74 35 6 73 -11 86 -38z"></path><path id="pqECW60mx" d="M204 159 c-10 -17 13 -36 27 -22 12 12 4 33 -11 33 -5 0 -12 -5 -16 -11z"></path><path id="p1GbofhjMK" d="M78 146 c-12 -9 -14 -16 -7 -29 14 -23 26 -21 33 5 7 29 -4 40 -26 24z"></path><path id="pPoJSuzhE" d="M320 80 c0 -11 39 -20 45 -10 3 4 -6 10 -20 12 -14 3 -25 2 -25 -2z"></path><path id="pLO3j50oW" d="M130 55 c0 -8 10 -19 22 -26 18 -10 20 -9 15 6 -4 9 -7 21 -7 26 0 5 -7 9 -15 9 -8 0 -15 -7 -15 -15z"></path><path id="pFOLFUUFW" d="M248 53 c-10 -2 -18 -11 -18 -19 0 -18 56 -18 89 0 l23 13 -23 6 c-26 7 -44 7 -71 0z"></path></g></g><g id="l6gxZ22pCxr9UZYSEdPCxQp" fill="rgb(137,137,137)" style="transform: none;"><g style="transform: none;"><path id="pNYGYDWHV" d="M240 330 c0 -13 7 -20 20 -20 13 0 20 7 20 20 0 13 -7 20 -20 20 -13 0 -20 -7 -20 -20z"></path><path id="pUptap3X2" d="M300 313 c0 -10 12 -29 25 -42 14 -13 28 -34 31 -47 7 -28 16 -30 34 -9 10 12 9 16 -4 21 -9 3 -16 17 -16 29 0 14 -11 33 -26 44 -33 26 -44 26 -44 4z"></path><path id="pp1XC1ECv" d="M150 310 c19 -13 30 -13 30 0 0 6 -10 10 -22 10 -19 0 -20 -2 -8 -10z"></path><path id="p6zgkqEDY" d="M110 273 c0 -25 0 -26 20 -8 11 10 20 19 20 20 0 2 -9 5 -20 8 -16 4 -20 0 -20 -20z"></path><path id="p7svFPbkn" d="M220 271 c0 -5 13 -12 30 -16 16 -4 32 -11 35 -16 8 -12 25 -12 25 1 0 11 -53 40 -75 40 -8 0 -15 -4 -15 -9z"></path><path id="pmTo709ye" d="M60 190 c0 -27 2 -29 19 -18 11 7 22 20 24 30 4 14 -1 18 -19 18 -20 0 -24 -5 -24 -30z"></path><path id="p6wk1ILqa" d="M137 199 c-3 -12 0 -36 8 -53 l13 -31 1 53 c1 52 -12 70 -22 31z"></path><path id="prGTg0n5V" d="M378 179 c-25 -14 -23 -49 2 -49 16 0 20 7 20 30 0 17 -1 30 -2 30 -2 0 -11 -5 -20 -11z"></path><path id="pn48YrDc1" d="M205 160 c-11 -17 5 -32 21 -19 7 6 11 15 8 20 -7 12 -21 11 -29 -1z"></path><path id="p14aank9mQ" d="M79 143 c-11 -13 -11 -17 -1 -20 6 -3 12 -16 12 -29 0 -15 6 -24 15 -24 8 0 15 -7 15 -15 0 -8 9 -15 20 -15 27 0 25 23 -5 56 -14 15 -25 33 -25 40 0 21 -17 25 -31 7z"></path><path id="p19O22dcEO" d="M300 140 c0 -5 -14 -17 -31 -25 -23 -13 -37 -14 -60 -6 -16 5 -31 6 -34 1 -9 -15 60 -32 87 -21 41 16 77 61 48 61 -5 0 -10 -4 -10 -10z"></path><path id="pszfVsS7B" d="M332 98 c-17 -17 -15 -25 8 -31 16 -4 20 0 20 19 0 26 -10 30 -28 12z"></path><path id="pyDHBduJU" d="M290 50 c0 -5 10 -10 23 -10 18 0 19 2 7 10 -19 13 -30 13 -30 0z"></path></g></g><g id="l3bhOw8SLQ8gJFAwXRH9Nsj" fill="rgb(222,171,57)" style="transform: none;"><g style="transform: none;"><path id="p1FC8Aj8Rd" d="M515 235 c-14 -13 -25 -36 -25 -50 0 -26 39 -75 60 -75 19 0 50 20 50 32 0 9 -3 9 -12 0 -16 -16 -53 -15 -67 2 -17 20 -10 77 10 89 21 13 69 1 69 -18 0 -8 -7 -15 -15 -15 -8 0 -15 -4 -15 -10 0 -5 9 -10 20 -10 17 0 20 7 20 43 0 23 -4 37 -8 30 -5 -8 -13 -9 -22 -3 -24 15 -39 12 -65 -15z"></path><path id="plqm0snfA" d="M651 188 l-1 -78 29 0 c16 0 37 7 45 16 18 18 21 55 5 71 -8 8 -8 17 1 33 6 12 9 24 6 27 -3 3 -11 -6 -17 -21 -17 -37 -56 -36 -62 2 -2 15 -5 -8 -6 -50z m74 -28 c0 -21 -5 -26 -32 -28 -31 -3 -33 -1 -33 28 0 29 2 31 33 28 27 -2 32 -7 32 -28z"></path><path id="pAjlkdoRF" d="M786 193 c14 -38 29 -72 33 -76 5 -5 20 24 35 64 15 39 24 74 21 77 -3 4 -8 -4 -12 -16 -8 -30 -72 -32 -80 -2 -3 11 -9 20 -14 20 -4 0 3 -30 17 -67z m64 13 c0 -13 -23 -66 -29 -66 -4 0 -12 16 -18 35 -11 34 -11 35 18 35 16 0 29 -2 29 -4z"></path><path id="pZby6mcCw" d="M911 188 c-1 -77 -1 -78 25 -78 41 0 64 18 64 50 0 31 -22 50 -59 50 -14 0 -21 8 -24 28 -2 15 -5 -8 -6 -50z m74 -28 c0 -21 -5 -26 -32 -28 -31 -3 -33 -1 -33 28 0 29 2 31 33 28 27 -2 32 -7 32 -28z"></path><path id="p9nx0KJz5" d="M1030 185 c0 -43 4 -75 10 -75 6 0 10 14 10 30 0 28 2 30 39 30 37 0 40 -2 44 -32 2 -18 4 3 4 47 0 44 -2 63 -4 43 -4 -37 -5 -38 -44 -38 -38 0 -39 1 -39 35 0 19 -4 35 -10 35 -6 0 -10 -32 -10 -75z"></path><path id="pqnvflXG0" d="M1220 229 c0 -17 -12 -50 -26 -75 -14 -24 -22 -44 -17 -44 5 0 18 19 29 42 l21 42 26 -45 c31 -52 36 -45 7 11 -11 22 -20 53 -20 70 0 16 -4 30 -10 30 -5 0 -10 -14 -10 -31z"></path></g></g><g id="l2e70exxIAHpSW3t6LlnJ9m" fill="rgb(161,161,162)" style="transform: none;"><g style="transform: none;"><path id="p1F760JTds" d="M240 331 c0 -15 6 -21 21 -21 14 0 19 5 17 17 -5 26 -38 29 -38 4z"></path><path id="p1FuGR2lxb" d="M154 329 c-10 -18 11 -31 40 -23 36 9 34 34 -3 34 -17 0 -33 -5 -37 -11z"></path><path id="p1EswIrLjK" d="M300 317 c0 -8 9 -22 20 -32 11 -10 25 -33 32 -51 10 -27 15 -31 29 -23 16 8 17 13 7 34 -6 14 -19 25 -30 25 -12 0 -18 7 -18 24 0 13 -7 27 -16 30 -22 8 -24 8 -24 -7z"></path><path id="p10iKD9Dti" d="M194 270 c-50 -20 -71 -101 -39 -147 20 -29 75 -46 107 -34 33 12 68 57 68 87 0 73 -69 121 -136 94z m91 -35 c70 -69 -25 -177 -100 -113 -38 34 -39 82 -1 115 35 30 71 29 101 -2z"></path><path id="pvqh0POGm" d="M207 163 c-12 -11 -8 -23 8 -23 8 0 15 7 15 15 0 16 -12 20 -23 8z"></path><path id="pITECco5p" d="M70 236 c0 -7 -3 -29 -7 -47 -6 -34 -6 -34 15 -16 11 11 25 32 31 48 9 27 8 29 -15 29 -14 0 -24 -6 -24 -14z"></path><path id="pq1eltpci" d="M378 176 c-10 -10 -18 -23 -18 -30 0 -7 -9 -25 -20 -39 l-21 -26 21 -11 c19 -10 23 -7 41 35 11 25 19 55 17 67 -3 21 -4 21 -20 4z"></path><path id="p5j7SJrfD" d="M77 143 c-15 -15 -6 -33 17 -33 19 0 23 4 19 20 -5 20 -23 26 -36 13z"></path><path id="p1BxV4ReFY" d="M190 39 c0 -12 7 -19 20 -19 11 0 20 6 20 14 0 7 -9 16 -20 19 -15 4 -20 0 -20 -14z"></path><path id="pkuLTGjQa" d="M258 53 c-10 -2 -18 -11 -18 -19 0 -23 64 -14 68 9 3 17 -12 20 -50 10z"></path></g></g><g id="l5WcvFpzMicNjKT3moTOcQd" fill="rgb(192,193,193)" style="transform: none;"><g style="transform: none;"><path id="pbvmBHE4T" d="M168 338 c-29 -10 -38 -27 -15 -29 19 -2 122 3 125 6 1 1 0 10 -4 19 -7 18 -62 21 -106 4z"></path><path id="p1HkAsnRLl" d="M300 322 c0 -5 13 -26 30 -48 16 -21 30 -45 30 -51 0 -13 22 -18 33 -7 9 10 -25 74 -40 74 -7 0 -13 6 -13 14 0 8 -7 17 -16 20 -21 8 -24 8 -24 -2z"></path><path id="p113bgESXy" d="M98 280 c-19 -17 -25 -70 -9 -70 7 0 51 64 51 75 0 12 -28 9 -42 -5z"></path><path id="pZVurcJST" d="M193 266 c-91 -41 -61 -176 39 -176 30 0 46 7 69 29 38 38 39 80 2 120 -34 37 -68 45 -110 27z m94 -28 c33 -31 32 -90 -3 -117 -66 -52 -156 12 -124 89 7 17 20 35 29 40 28 16 74 11 98 -12z"></path><path id="pFNvs2oKD" d="M207 164 c-8 -8 1 -24 14 -24 5 0 9 7 9 15 0 15 -12 20 -23 9z"></path><path id="pyoDtRt2e" d="M378 173 c-10 -11 -18 -26 -18 -34 0 -8 -7 -23 -15 -33 -19 -25 -19 -32 0 -40 18 -7 58 71 53 104 -3 22 -3 22 -20 3z"></path><path id="pJRzLaopR" d="M74 136 c-9 -24 15 -56 41 -56 l24 0 -20 35 c-22 37 -36 44 -45 21z"></path><path id="pF7G6liKc" d="M273 45 c-9 -24 4 -30 34 -16 22 10 24 14 12 22 -21 13 -39 11 -46 -6z"></path></g></g><g id="lmWY3g4dz4KoQ1JR07bD4S" fill="rgb(219,219,219)" style="transform: none;"><g style="transform: none;"><path id="pzBqP1Z6H" d="M161 336 c-22 -12 -23 -14 -6 -23 11 -7 30 -7 48 -2 17 5 40 6 53 3 19 -5 22 -3 17 15 -4 17 -13 21 -47 21 -22 -1 -52 -7 -65 -14z"></path><path id="p6LF8C4vB" d="M86 272 c-19 -37 -31 -102 -18 -102 13 0 28 20 37 50 4 14 15 33 23 43 14 16 14 19 2 27 -23 15 -28 12 -44 -18z"></path><path id="pNj2qa22p" d="M179 257 c-47 -36 -51 -97 -10 -138 61 -60 156 -23 156 61 0 34 -6 47 -28 66 -16 13 -36 24 -45 24 -10 -1 -4 -7 14 -14 35 -15 59 -63 49 -96 -28 -87 -165 -72 -165 18 0 36 32 79 63 85 19 4 19 4 2 5 -11 1 -27 -4 -36 -11z"></path><path id="pPgVJC42a" d="M358 254 c-6 -5 1 -44 7 -44 2 0 10 3 19 6 12 5 13 10 5 25 -10 19 -21 24 -31 13z"></path><path id="pXjDB7sAC" d="M382 178 c-5 -7 -18 -31 -28 -53 -10 -22 -20 -43 -22 -47 -2 -5 6 -8 17 -8 12 0 21 6 21 16 0 8 7 22 15 30 8 9 15 29 15 45 0 32 -3 35 -18 17z"></path><path id="pqSJsovaE" d="M81 140 c-19 -11 -6 -40 18 -40 14 0 18 5 14 20 -7 26 -15 31 -32 20z"></path><path id="pinM13Tgk" d="M238 53 c-40 -3 -48 -8 -48 -24 0 -15 7 -19 34 -19 38 0 96 18 96 30 0 7 -29 23 -33 18 -1 -1 -23 -3 -49 -5z"></path></g></g><g id="l2ydqFwVzgPGEHWBig8zrmw" fill="rgb(238,238,238)" style="transform: none;"><g style="transform: none;"><path id="p88vtNzn6" d="M160 335 c-33 -18 -14 -25 57 -22 43 2 53 5 53 20 0 13 -9 17 -42 17 -24 -1 -54 -7 -68 -15z"></path><path id="pr9Y2iQK8" d="M310 312 c0 -11 7 -25 16 -33 8 -7 22 -26 31 -42 11 -22 18 -26 26 -18 15 15 -17 77 -50 99 -21 13 -23 13 -23 -6z"></path><path id="p1GZRe0qgl" d="M80 260 c-11 -22 -20 -51 -20 -65 0 -23 2 -24 20 -15 11 6 20 19 20 28 0 10 7 27 15 38 19 25 19 40 0 48 -10 4 -21 -7 -35 -34z"></path><path id="pYFD2N22M" d="M358 130 c-25 -49 -25 -60 -3 -60 14 0 45 63 45 90 0 34 -16 22 -42 -30z"></path><path id="p1HQOjDIUV" d="M81 136 c-10 -11 -9 -21 3 -45 15 -28 51 -61 68 -61 15 0 8 37 -9 51 -9 8 -24 26 -33 42 -15 23 -19 25 -29 13z"></path><path id="pWVqcCKcO" d="M287 53 c-3 -2 -26 -5 -52 -5 -38 0 -46 -3 -43 -16 2 -11 15 -18 37 -20 34 -4 91 14 91 28 0 10 -26 20 -33 13z"></path></g></g></svg>
