<?xml version="1.0" standalone="no"?>
<!DOCTYPE svg PUBLIC "-//W3C//DTD SVG 20010904//EN"
 "http://www.w3.org/TR/2001/REC-SVG-20010904/DTD/svg10.dtd">
<svg version="1.0" xmlns="http://www.w3.org/2000/svg"
 width="260.000000pt" height="260.000000pt" viewBox="0 0 260.000000 260.000000"
 preserveAspectRatio="xMidYMid meet">
<metadata>
Created by potrace 1.14, written by Peter Selinger 2001-2017
</metadata>
<g transform="translate(0.000000,260.000000) scale(0.100000,-0.100000)"
fill="#000000" stroke="none">
<path d="M635 2010 c-266 -42 -449 -192 -524 -430 -28 -90 -44 -229 -36 -330
26 -332 174 -534 445 -607 49 -13 103 -18 215 -17 158 0 249 11 378 45 l77 21
0 344 0 344 -245 0 -245 0 0 -95 0 -95 140 0 140 0 -2 -177 -3 -178 -65 -11
c-86 -16 -216 -17 -282 -3 -212 45 -322 214 -322 494 0 165 30 263 112 364
125 154 376 194 626 101 32 -12 59 -20 61 -18 2 1 19 41 38 88 l36 85 -26 13
c-14 8 -68 25 -121 38 -110 28 -297 39 -397 24z"/>
<path d="M1520 1320 l0 -680 110 0 110 0 0 275 0 276 112 -3 111 -3 161 -272
161 -273 123 0 c67 0 122 2 122 4 0 3 -81 134 -181 292 -99 157 -183 292 -185
299 -3 7 19 26 53 45 130 73 194 179 195 325 2 228 -113 348 -367 385 -38 5
-172 10 -297 10 l-228 0 0 -680z m533 471 c142 -44 185 -243 77 -351 -51 -51
-125 -70 -273 -70 l-117 0 0 221 0 221 138 -5 c75 -2 154 -10 175 -16z"/>
</g>
</svg>
